<?xml version="1.0" encoding="UTF-8"?>
<svg id="Layered_Otter" data-name="Layered Otter" xmlns="http://www.w3.org/2000/svg" viewBox="0 0 23.92 24">
  <defs>
    <style>
      .cls-1 {
        fill: #fff;
      }

      .cls-2 {
        fill: #e10600;
      }

      .cls-3 {
        fill: rgba(255, 255, 255, .75);
      }

      .cls-4 {
        fill: rgba(255, 255, 255, .5);
      }
    </style>
  </defs>
  <rect class="cls-2" x="0" y="0" width="23.92" height="24" rx="11.96" ry="11.96"/>
  <g>
    <g id="Talk_bubble" data-name="Talk bubble">
      <circle class="cls-4" cx="13.7" cy="6.21" r=".4"/>
      <circle class="cls-3" cx="15.14" cy="6.21" r=".4"/>
      <circle class="cls-1" cx="16.53" cy="6.21" r=".4"/>
      <path class="cls-1" d="M15.12,8.82c-.31,0-.6-.04-.88-.11-.42.28-1.08.59-1.89.59-.14,0-.27-.08-.33-.22-.06-.13-.03-.28.07-.39,0,0,.36-.39.59-.88-.43-.45-.68-1.02-.68-1.65,0-1.46,1.4-2.65,3.13-2.65s3.13,1.18,3.13,2.65-1.4,2.65-3.13,2.65ZM17.76,6.17c0-1.19-1.17-2.17-2.65-2.17s-2.65.97-2.65,2.17c0,.48.19.94.55,1.32l.22.24-.14.3c-.15.32-.34.6-.48.78.58-.06,1.04-.29,1.35-.5l.18-.12.2.05c.25.06.51.09.76.09,1.46,0,2.65-.97,2.65-2.17Z"/>
    </g>
    <path class="cls-1" d="M16.15,10.22l-.5-.1c-.21-.04-.41.08-.46.29-.05.2.06.41.26.48l.54.18c.94.31,1.58,1.2,1.58,2.19,0,.41-.15.78-.4,1.07v-1.03c0-.22-.18-.4-.4-.4-1.1,0-1.99.89-1.99,1.99h-1.59s-.08,0-.21,0c.1-.04.22-.07.34-.07h.17c.57,0,1.04-.46,1.04-1.04s-.46-1.04-1.04-1.04h-.17c-.45,0-.94.13-1.29.36-.48.29-.72.56-.83.91-.02-.05-.03-.1-.04-.16.24-.36.38-.79.38-1.25v-.53c0-.13,0-.27-.03-.4h.03c.22,0,.4-.18.4-.4s-.18-.4-.4-.4h-.27c-.45-.94-1.41-1.59-2.52-1.59h-1.59c-1.11,0-2.07.65-2.52,1.59h-.27c-.22,0-.4.18-.4.4s.18.4.4.4h.03c-.02.13-.03.26-.03.4v.53c0,.48.15.92.4,1.28.02.03.04.06.05.08v.94c0,3.07,2.49,5.57,5.57,5.57h3.97c3.1,0,5.61-2.51,5.61-5.61,0-2.26-1.59-4.21-3.81-4.65ZM13.3,13.45h.17c.19,0,.35.16.35.35s-.16.35-.35.35h-.17c-.42,0-.77.3-.85.69h-.02c-.26,0-.48-.14-.6-.35.21-.6.79-1.03,1.47-1.03ZM5.15,12.07c0-1.1.89-1.99,1.99-1.99h1.59c1.1,0,1.99.89,1.99,1.99v.53c0,.81-.65,1.46-1.46,1.46-.23,0-.45-.05-.65-.15l-.32-.16c-.22-.11-.49-.11-.71,0l-.32.16c-.2.1-.43.15-.65.15-.81,0-1.46-.65-1.46-1.46v-.53ZM5.62,14.63c.3.15.64.23,1,.23s.7-.08,1.01-.24l.32-.16.32.16c.31.16.66.24,1.01.24.38,0,.74-.09,1.05-.26h0s.02-.01.05-.03c.06.01.09.02.09.02.21.64.81,1.1,1.52,1.1h1.41c-.38.42-.61.98-.61,1.59h-2.06c.04-.12.07-.26.07-.4,0-.66-.54-1.2-1.2-1.2h-2.79c-.61,0-1.12-.46-1.19-1.06,0,0,0,0,0,0ZM14.35,19.68h-3.97c-2.18,0-4.02-1.47-4.59-3.47.3.18.65.28,1.02.28h2.79c.22,0,.4.18.4.4s-.18.4-.4.4h-1.59c-.22,0-.4.18-.4.4s.18.4.4.4h5.18c.22,0,.4-.18.4-.4v-.4c0-.88.71-1.59,1.59-1.59h0c.22,0,.4-.18.4-.4v-.4c0-.52.33-.96.8-1.13v3.06c0,.4-.2.77-.53.99l-.49.32c-.18.12-.23.37-.11.55.12.18.37.23.55.11l.49-.32c.56-.37.89-.99.89-1.66v-1.47c.72-.42,1.2-1.2,1.2-2.1,0-.33-.05-.66-.15-.96.6.7.95,1.59.95,2.57,0,2.66-2.16,4.81-4.81,4.81Z"/>
    <circle class="cls-2" cx="6.35" cy="12.07" r=".4"/>
    <path class="cls-1" d="M8.14,12.07h-.4c-.33,0-.6.27-.6.6v.2c0,.15.08.29.22.36l.4.2c.11.06.24.06.36,0l.4-.2c.13-.07.22-.21.22-.36v-.2c0-.33-.27-.6-.6-.6Z"/>
    <circle class="cls-1" cx="9.54" cy="12.07" r=".4"/>
    <circle class="cls-1" cx="6.35" cy="12.07" r=".4"/>
  </g>
</svg>